<?xml version="1.0" encoding="UTF-8"?>
<svg id="Layer_1" xmlns="http://www.w3.org/2000/svg" version="1.1" viewBox="0 0 595.28 841.89">
  <!-- Generator: Adobe Illustrator 29.8.4, SVG Export Plug-In . SVG Version: 2.1.1 Build 6)  -->
  <defs>
    <style>
      .st0 {
        fill: #fff;
      }
    </style>
  </defs>
  <path d="M432.92,219.74v485.04H115.4V219.73s317.52,0,317.52,0ZM239.38,584.47c-.11,1.09,0,2.46,0,3.6,0,.13.35.49.6.12.53-.77.95-3.24,1.44-4.32s1.85-3.72,3.24-3c1.54.78.31,8.12.24,9.84-.12,2.84.14,5.51.72,8.27.05.07.31-.13.36-.24.54-1.1.41-3.98.65-5.34.86-4.83,5.22-14.75,7.73-19.13.69-1.2,1.89-3.74,3.49-3.25,2.03.62,3.58,8.31,3.83,10.34.15,1.24-.01,6.63.85,7.07.49.1.7-1.04.78-1.38.71-3.12.37-7.04.8-10.23.49-3.62,4.17-2.06,6.38-1.14,1.28.53,5.95,3.3,6.88,3.1.27-.06.43-.37.62-.54-3.48-3.46-7.2-7.01-10.16-10.94-2.68-3.56-6.35-9.78-6.62-14.25-.17-2.84.4-4.68,3-2.04.89.91,5.83,7.88,6.06,8.81.79,3.3.55,5.68,2.24,9.03s6.99,8.03,7.38,10.84c.34,2.44-.7,5-.93,7.42-.06.61-.22,4.71,0,4.91.41.08.5-.09.66-.42.44-.9.39-2.85.65-3.91.99-4.1,3.27-11.88,6-14.86,1.54-1.68,2.45-2.67,4.99-2.1.81.18,1.85,1.62,2.21,2.34,2.51,4.97,1.9,9.19,6.12,14.03.34.39,3.74,4.09,4.07,2.4-1.07-2.55-2.75-4.82-3.53-7.5-1.21-4.16-.56-8.63-.78-12.9-.23-4.51-1.97-8.7,1.08-12.81s6.56-1.81,8.31,1.97c1.35,2.92,1.28,5.43,1.01,8.58.17.71.98.71,1.58.7v-3.72c0-.32,2.24-5.21,2.6-5.8,2.72-4.44,2.8,1.51,2.69,3.65-.21,4.17-1.35,8.68-2.1,12.77-.85,4.65-1.08,9.1-3.8,13.23-.15.75-2.69,1.3-2.5,1.81.33.89,2.23.71,2.96.33s3.58-4.02,4.19-4.93c1.13-1.67,3.62-7.2,4.99-7.97.87-.49,1.44.12,1.96.85,1.85,2.61,3.16,7.12,4.97,10.14.27.44,3.36,5.23,3.94,4.57-.73-3.23-2.55-6.18-3.09-9.5-.38-2.37-.38-7.74.64-9.86.95-1.96,1.88-.76,2.78-.85.67-.06,1.09-1,1.52-1.11,1.79-.47,3.8,5.41,3.91,6.8.52.81.93-1.4.94-1.7.04-1.65-.68-3.44-.43-5.23s5.68-11.02,6.97-12.94,2.54-3.76,5-3.76c-.04-2.16-3.56-1.09-4.79-.35-2.03,1.23-6.47,7.21-8.61,3.32-1.41-2.57-.76-8.99-1.26-12.17-.55-3.54-2.25-4.14-1.86-8.39.28-3.01,1.87-5.56,1.65-8.55.88-.85,2.38,2.61,2.68,3.2.29.55.35,1.22.63,1.77.42.85,1.44,1.55,1.48,2.82.06.27.33.17.49.02.33-.3,1.3-5.28,1.61-6.31.72-2.41,1.84-4.77,2.71-7.12.56-1.51,1.99-9.24,4.79-6.25,1.55,1.66,1.13,5.01,1.46,7.17.29,1.88.78,4.62,1.24,6.44.12.47.35.9.42,1.38.19.14.72-.23.72-.36v-7.2c0-1.25,5.93-6.45,7.08-7.79.93-1.1,1.97-3.16,2.89-4.07.49-.48,1.17-.41,1.44-1.2.39-1.15.44-2.57,1.07-3.73l-.5-.27c-.66.41-1.42.51-1.86-.26-.2-.36-1.07-3.29-1.18-3.85-.19-.93-.64-4.38-.49-5.16.31-1.68,2.35-1.9,3.62-2.62.91-.52,3.77-2.08,3.76-3.19-1.72-.36-3.99,1.07-4.5-1.5-.49-2.43.28-6.27.42-8.82.1-1.81-.07-8.16.85-9.22,1-1.16,4.25-1.02,4.62.64.15.66.07,1.64.05,2.35-.15,4.44-.37,6.94.55,11.44,1.57,7.64,5.8,14.46,2.45,22.26-1.73,4.03-3.22,1.67-4.48-1.04-.6-1.29-.88-3.39-1.42-4.33-.16-.28-.36-.54-.58-.15-.49.89.26,5.34.13,6.85-.31,3.56-4.53,6.41-6.72,9.11-2.8,3.46-5.21,7.77-4.93,12.35.48.88.87-1.67.97-1.92.79-2.07,2.38-4.61,4.35-5.72,1.62-.92,4.76-1.73,5.78.38,1.32,2.71-.89,7.97-.41,10.97.29,1.76,2.07,2.42,2.16,4.57s-1.61,7.64-3.56,3.3c-1.67-3.72-2.33-8.28-2.94-12.3-.61-.14-.5.23-.64.67-1.05,3.46.43,11.07.17,15.29-.49,7.84-5.99,14.17-6.45,22.09-.11,1.89.44,3.31.69,5.13.92.95.72-3.56.78-3.9.28-1.78,1.86-4.24,3.05-5.58,1.31-1.47,3.56-3.79,4.4-.55.61,2.34.34,9.27-1.28,11.11-.43.49-1.02.72-1.45,1.19-1.4,1.51-1.27,4.71-2.08,6.8-.61,1.57-2.06,3.19-2.36,4.84-.42,2.33-.09,7.75.48,10.1.06.23.4,1.6.85,1.19.28-.26.59-6.47.75-7.53.47-3.06,1.4-6.32,3.68-8.55,4.47-4.39,3.87,1.94,3.43,4.87-.58,3.8-1.74,7.77-2.31,11.61-.14.93-.73,5.1-.4,5.61h.73c.79-3.73,2.26-7.87,4.15-11.2.79-1.4,3.15-5.47,4.97-4.41,1.64.96,3.33,7.34,3.46,9.25.1,1.46-.47,3.38-.23,4.55.11.55.65.71.72,1.21.15,1.11-.79,2.87-1.09,3.95-.61,2.23-1.18,4.49-1.79,6.72,2.09-1.06,5.87-13.01,7.76-12.7.24.15.49.36.58.64.26.84-1.02,4.85-1.38,5.95-.86,2.63-2.14,5.13-3.07,7.72-2.31,6.41-3.12,12.51-8.57,17.09-2.71,2.28-5.31,4.09-7.55,7.08-.55.74-3.21,4.96-2.64,5.63.51.11.54-.26.76-.56,5.04-6.89,8.38-6.7,15.97-8.97,1.47-.44,2.05-1.53,3.49-.51,2.09,1.48.41,5.71-.52,7.56-2.98,5.92-7,12.35-10.31,18.23-5.54,9.85-14.25,27.44-21.65,35.2-.76.79-5.93,4.63-5.01,5.66,1.23-.44,2-1.32,3.27-1.88,1-.44,2.04-.7,3.09-.98,4.01-3.3,6.74-8.34,10.19-12.36.47-.55,1.99-2.44,2.55-2.5.81.07.56.86.46,1.42-.18,1-1.08,2.74-1.53,3.75-.48,1.08-3.79,7.22-3.4,7.75,2.55-3.24,4.72-6.99,6.75-10.63,3.66-6.56,7.33-16.2,11.71-21.87.56-.72,2.5-3.08,3.36-2.9.24.05,3.46,1.95,3.61,2.17.82,1.23.38,6.91.95,7.33.79.05.97-1.04,1.13-1.63,1.84-6.77,1.9-15.29,3.25-22.41.95-5,2.76-10.13,3.51-15.2.49-3.3.05-5.72,1.28-9.04s3.25-6.73,4.51-10.36c1.81-5.18,2.4-10.61,4.06-15.61.82-2.48,2.78-6.2,3.79-1.37.56,2.68.42,6.06,1.03,8.57.09.36-.17.42.47.36.3-1.32.72-2.64.93-3.99.81-5.21.29-9.42,2.18-14.61,3.27-8.98,10.34-16.66,13.31-25.79.77-2.36,1.45-5.19,1.32-7.67-.53-.6-1.35,2.81-1.5,3.18-1.77,4.55-4.44,8.85-8.74,11.41-3.07,1.83-4.58,1.9-3.8-2.36.31-1.71,1.6-3.09,2.17-4.55,1.42-3.62.93-8.49,1.32-12.35.09-.92.78-5.55,1.18-6.02,1.27-1.5,2.05.99,2.35,2.01.68,2.31.99,5.42,1.26,7.85.14,1.22-.35,2.7.6,3.71l.33-.39c.87-7.37.96-14.86.76-22.29-.1-3.69-.68-4.67.3-8.56.74-2.93,1.82-5.82,2.5-8.77,1.02-7.6,3.57-15.65,4.39-23.2.03-.26.2-1.59-.35-1.32-2.99,5.15-3.31,11.83-6.32,16.95-.59,1-1.88,3.32-3.23,2.92-.24-.08-.41-.23-.52-.45-.83-1.6-.43-6.66.28-8.34.32-.76.99-1.16,1.17-1.71,1.1-3.48,2.41-6.44,3.58-9.85,1.24-3.6,1.86-7.34,3.6-10.8.31-.63,2.63-3.96,2.28-4.31-.9,0-1.71.82-2.28,1.44-2.18,2.34-9.55,16.84-10.2,5.17-.09-1.69.25-3.27.26-4.8.05-7.07-.03-25.19,4.18-30.6.31-.39,1.98-2.06,2.34-2.21,3.42-1.4,6.19,4.54,7.25,7.02.39.91.28,2.56,1.56,2.4-.14-5.73-2.42-11.1-5.23-15.99-3.32-5.77-6.22-7.18-3.71-14.66.4-1.18,1.29-2.16,1.27-3.41-.44-.45-2.11,1.49-2.35,1.84-1.63,2.35-2.43,5.78-4,8.23-.71.6-1.32.15-1.5-.65-.5-2.16.12-6.26.2-8.57.22-6.91.29-14.53.95-21.36.14-1.41,1.69-9.63,1.19-10.2-.71-.02-1.07,1.12-1.31,1.68-.84,1.94-3.31,10.78-4.54,11.52-1.71,1.03-2.66-2.07-2.94-3.32-.33-1.44-.83-8.94-.37-10.06.2-.48,1.19-1.32,1.6-2,2.11-3.46,2.77-7.2,8.06-5.86,6.92,1.75,8.13,8.48,10.82,14.12l.68.39c-.02-.82.07-1.64-.06-2.46-.51-3.34-1.97-7.89-2.89-11.26-.74-2.73-2.46-5.7-1.58-8.55,1.05-.65,4.22,2.74,4.89,3.56,1.37,1.69,1.92,3.33,2.04,5.52.44.52.66-.9.69-1.11.55-4.52-2.56-6.78-3.75-10.34-1.67-4.97-.04-10.44.2-15.53.15-3.38-.54-6.9-.25-10.33l-.36-.59c-.22.2-.44.36-.54.65-.95,2.78-.48,6.14-1.73,8.82-.35.75-2.31,2.93-3,3.47-.22.17-2.09,1.37-2.21,1.41-.56.15-1.22-.31-1.62-.69-1.35-1.27-2.67-7.32-3.47-9.48-2.26-6.07-5.59-11.67-7.14-18.05-2.57-10.62-3.8-20.86-7.19-31.43-7.61-23.7-19.59-46.8-26.52-70.62-.56-1.93-.83-5.12-1.5-6.66-.13-.31-.73-.66-.96-.96-.37-.08-.53.28-.59.6-.28,1.51.58,3.72,1.03,5.21,6.53,21.81,17.03,43.07,23.13,64.91,1.16,4.15,3.69,13.18,2.03,17.01-.9,2.07-1.71,2.65-3.65,1.16-2.08-1.6-2.59-3.77-4.19-5.64-.53-.1-.34.24-.36.6-.19,3.27,7.29,15.76,9.08,19.7.39.85,1.68,3.35,1.73,4.05.14,1.91-1.51,1.81-2.28,2.77-.31.38-.3.93-.61,1.31-3.61,4.58-3.51-.83-4.92-2.52-.28-.33-.5-.15-.57.15-.16.64.78,6.05,1,7.1.59,2.85,1.93,5.77,1.85,8.7s-1.69,8.88-3.6,11.03c-1.63,1.83-3.9,1.39-5.08-.67-2.55-4.48.64-16.89,1-22.36.07-.99-.04-2,0-3-.45.14-.63.58-.84.96-1.88,3.52-2.42,7.84-4.72,11.59-.57.93-1.33,2.49-2.67,2.05s-.99-7.14-1.15-8.46c-.02-.21-.22-1.59-.69-1.11-.81,5.62-2.08,12.13.43,17.43,3.27,6.92,7.11,14.19,7.48,22.03.16,3.45-2.79,4.37-3.89,1.73-.92-2.2-.8-6-1.17-8.42-.29-1.9-.88-4.27-1.69-6-.12-.25-.15-.82-.55-.63-.81.38.06,2.49.11,3.24.3,4.58-1.05,8.5-1.2,12.72-.05,1.41.84,3.03-.36,4.19-.53.12-1.44-1.99-1.6-2.47-1.11-3.39-.36-5.87-3.97-8.02-.44-.26-3.15-1.52-3.41-1.26.35,1.87,2.62,2.35,3.48,4.07,1.07,2.15.98,5.47,1.62,7.97.89,3.48,3.5,8.28,2.99,11.76-.28,1.9-2.22,5.02-4.5,3.9-1.45-.71.96-4.9.48-5.4-.89-.08-1.32.87-2.16,1.09-.99.27-1.55-.26-2.17-.97-2.28-2.59-.38-4.49-.02-7.23.11-.86-.05-1.73.04-2.59.09-.8.7-1.61.46-2.54-.52-.09-.56.23-.71.6-1.31,3.26-1.73,7.3-5.07,9.32-1.72,1.04-6.58,3.49-8.42,4.05-3.85,1.18-10.68,1.77-13.33-1.91-1.69-2.35-3.69-7.9-4.09-10.78-.16-1.13.38-2.47-.63-3.2-1.22,1.7-.89,3.8-1.68,5.75-1.14,2.8-3.42,6.04-5.27,1.68-2.03-4.79-3.02-10.66-5.21-15.65-.24-.56-.61-1.28-1.14-1.61-.29,2.15.44,4.09.69,6.15.71,5.97,1.14,10.61-1.05,16.4s-5.57,5.88-9.46,1.32c-3.65-4.28-5.69-8.51-3.85-14.16.59-1.8,1.87-3.33,2.41-5.15-.52-.07-.84.47-1.34.49s-.81-.43-.94-.43c-.51,0-1.99,3.74-2.39,4.5-1.45,2.76-1.58,2.36-2.34,5.57s-2.92,9.22-5.85,11.18-4.92,1.56-6.89-1.18c-2.67-3.7-3.73-8.53-2.99-13.03.51-3.13,2.35-6.27,2.13-9.5-.23.04-.45.3-.6.47-.72.82-3.4,6.78-3.89,8.1-3.14,8.44-.41,16.21.19,24.64.13,1.84.2,7.87-3.01,5.65-1.38-.96-5.08-7.41-5.76-7.43-.4.29-.33.31-.26.72.22,1.19,1.62,4.26,1.57,5.13-.02.36-.27.94-.63,1.06-.47.17-.77-.01-1.18-.19-1.82-.81-3.95-5.8-4.77-7.7-.14-.32-.8-3.09-1.08-1.32s1.63,8.52,2.28,10.43c1.74,5.05,3.92,7.5,6.79,11.68,3.21,4.68,2.2,11.77,1.95,17.22-.07,1.5.3,4.02-.21,5.3-.31.79-.79,1.21-1.27.28-1.37-2.65-1.37-6.82-2.17-9.58-.4-1.39-.98-1.75-1.13-.07-.09,1.01.07,2.11,0,3.13l.44,6.89c-1.1,2.72-2.5-.29-4.27-.06-.12,1.62,2.61,3.5,2.36,4.86-.1.54-2.18,3.46-2.64,4.33-.53.99-.83,2.43-1.44,3.36-.43.67-1.35,1.08-1.52,1.36-.19.3.16,2.94.13,3.73-.04,1.1-.43,2.49-.49,3.59-.13,2.56-.22,5.7.84,8.03.79-4.26.35-9.02,3.24-12.59,1.41-1.73,4.01-3.45,5.85-1.31.89,1.04,3.77,7.44,3.96,8.76.12.86.32,2.77-.79,2.96-.28-.05-3.95-3.5-4.23-3.94-.61-.95-.48-2.13-.95-3.12-.38-.35-1.35.78-1.41,1.01-.12.47.6,1.85.69,2.59.16,1.43-.12,3.09,0,4.56.2,2.41.92,4.75.71,7.2-.19,2.19-1.21,4.46-1.62,6.54-.43,2.19-.38,4.79-.78,6.89-.18.94-.97,1.12-1.39.21l-2.91-5.24c.31-1.05,1.29-1.61,1.87-2.44,1.76-2.52,2.8-5.23,3.4-8.23-2.07,2.29-5.14,8.43-8.52,4.08-2.77-3.56-.96-6.37-.39-10.23.5-3.33.39-9.86,1.51-12.64.2-.49.79-.32,1.04-.64,1.12-1.48-.01-4.82-.12-6.6-.43-7.39,5.47-13.47,6-21.1.06-.82.21-7.09-.61-7.08-1.23,3-.67,5.62-2.42,8.61-1.04,1.78-4.77,5.42-5.36,1.56-.85-5.53.29-11.94-.28-17.47-.33-3.17-2.58-4.2-2.11-7.44.14-.96,1.02-2.47,2.13-1.94,2,.94,4.08,7.21,5.04,9.24,1.35-.1.38-2.75.17-3.65-1-4.19-2.59-10.41-5.11-13.84-1.03-1.4-3.17-2.91-3.23-4.71-.04-1.3,1.4-3.72,2.29-4.67,1.37-1.48,6.97-4.7,7.52-6.15.06-.16.14-.55-.08-.56-1.53-.21-3.9,1.68-4.39-1.38-.11-.67.12-2.94.19-3.77.13-1.53,1.6-10.03.71-10.68l-.66.41c-1.1,5.28-3.44,10.49-6.33,15.01-1.5,2.34-4.06,6.61-7.4,5.57-1.02-.32-1.69-1.63-1.68-2.65,0-4.39.63-10.99,1.53-15.28.21-.99.95-1.87.65-2.83-.46-.35-1.54,1.44-1.72,1.76-1.03,1.82-1.81,7.5-4.51,5.79-2.13-1.35-5.48-7.31-7.19-7.92-.32-.11-.64-.13-.97-.11.57,1.87,1.48,3.6,2.09,5.47,1.16,3.57,2.44,9.14,1.69,12.83-.07.33-.58,1.32-.8,1.6-1.22,1.58-7.57,3.28-9.53,2.84-3.68-.83-.72-8.6.06-10.87.38-1.1,1.32-2.68,1.58-3.7.47-1.84-3.21.78-3.74,1.3-1.63,1.62-5.68,8.68-7.32,9-1.11.22-1.6-.13-1.98-1.13-1.08-2.83,2.57-8.84,2.82-12.42.13-1.85.3-4.76-.6-6.35-.71,4.67-1.8,9.1-6.35,11.4-2.65,1.34-7,1.64-6.69-2.37.22-2.86,1.15-7.58,1.73-10.51.23-1.16.6-2.18.88-3.31-2.39,1.03-2.58,4.46-3.48,6.71-.83,2.08-2.14,4.79-3.59,6.48-1.75,2.04-6.9,5.91-8.8,2.32s1.44-10.11,2.96-13.45c1.13-2.48,2.94-4.81,3.32-7.59-.6-.12-.6.08-.92.4-.67.67-1.39,1.94-2.07,2.73-3.16,3.61-8.67,10.29-8.75.36l.48-4.8-.72-.6c.32,1.3-.49,2.09-.79,3.16-1.05,3.79-3.44,13.74-2.98,17.28.26,2.01,1.32,4.47,1.6,6.56.55,4.08,1.2,11.34.71,15.3-.27,2.16-1.35,6.22-3.42,2.52-2.58-4.6,1.23-12.2.81-17.24-.55-.12-.38.06-.54.31-.4.64-.85,2.13-1.14,2.93-1.18,3.24-2.19,6.56-3.1,9.86-1,.7-1.65-1.66-1.81-2.29-1.23-4.8-.66-15.48.83-20.28,1.23-3.95,5.54-13.8,7.82-17.12.41-.59,2.87-3.02,2.5-3.38-3.19.27-5.79,4.12-7.8,6.47-1.64,1.93-2.75,4.54-5.27,5.5-1.57,0-2.59-3.53-2.88-4.78-1.52-6.65-3.44-17.21-2.72-23.84.34-3.16,1.46-6.13,1.89-9.27-.42.24-.91.7-1.16,1.11-1.58,2.59-2.55,6.45-3.98,9.21-.35.68-1.83,3.04-2.4,3.36-1.82,1.04-4.03-.76-5.59-.93-1.75-.19.15,1.55.66,2,.73.64,1.85,1.14,2.52,1.8,1.34,1.31,3.75,6.12.02,5.75-1.87-.19-2.17-2.4-2.98-3.76-1.32-2.19-2.25-2.98-2.9-5.73-3.23-13.71-.31-27.27,1.98-40.93,2.97-17.73,6.11-35.89,9.87-53.45.42-1.96,1.24-4.24,1.54-6.14.04-.26.19-1.33-.34-1.06-.6.31-2.68,7.4-2.98,8.53-7.19,26.61-11.38,55.03-19.68,81.31-2.37,7.51-5.24,10.35-9.31,16.59-2.63,4.03-4.64,8.41-7.18,12.49l-.06.78c.37.07.55-.04.85-.23,1.43-.92,4.26-5.41,5.74-6.97,4.22-4.46,5.03-1.86,3.36,2.88-1.26,3.57-4.58,11.83-6.54,14.8-.6.91-1.43,2-2.58,1.29-.61-.37-3.06-5.02-3.41-5.95-1.47-3.86-1.6-8.31-2.57-12.3-.54-.78-.81,1.48-.84,1.81-.72,8.61.56,17.39,1.4,25.93.79,8.01,1.54,10.76-1.29,18.56-.57,1.57-1.82,3.02-1.55,4.8.97.17,1.35-.47,1.88-1.12,1.83-2.26,2.7-5.64,4.47-8.01,1.92-1.87,2.46,2.15,2.7,3.32.86,4.15,1.87,9.92,1.52,14.09-.25,2.91-1.87,5.86-2.63,8.64-.29,1.05-1.02,4.13.93,2.85s4.28-5.43,6.61-7.06c1.04-.73,1.72-.64,2.61.26,1.04,1.06,5.92,11.97,6.11,13.56.81,6.68-3.77,4.61-6.45,1.17-.78-1-1.89-4.36-2.77-4.44-1.62-.16-5.94,3.86-7.96,4.27-2.69.55-4.74-2.2-6.02-4.19-2.6-4.05-3.6-7.89-3.88-12.67-.11-1.83.21-3.98-.03-5.73-.03-.24-.15-1.08-.57-.86-.38.34-.5.86-.58,1.34-.89,5.35-1.53,10.85-.67,16.22.53,3.28,2.33,7.67,1.83,10.85-.32,2.05-3.32,6.09-4.34,8.13-2.15,4.28-4.1,10.31-3.53,15.13.21,1.78.92.56,1.11-.52.69-3.97,1.78-9.47,6.06-11.21,6.51-2.65,8.99,4.06,11.74,8.4.7,1.11,3.7,4.62,3.34,5.72-.25.76-1.6.35-2.13.02-1.92-1.21-4.6-5.66-6.31-6.4-.64-.28-1.85-.36-1.58.62.04.16,1.73,1.98,2.08,2.48,2.28,3.33,3.93,7.14,6.33,10.46,1.23,1.7,3.08,3.37,4.08,5.04,1.06,1.76,3.19,9.06,3.31,11.09.03.58,0,1.14-.23,1.68-2.48,5.15-5,10.33-6.97,15.7.66.63,2.87-2.98,3.35-3.49s2.39-2.25,2.9-2.61c3.85-2.7,4.09,2.52,3.8,5.24-.59,5.52-3.41,18.9-5.76,23.74-2.52,5.2-4.67,3.79-9.01,5.86-2.75,1.31-6.21,6.25-6.31,9.28-.01.36-.17.69.35.59,1.76-2.41,3.28-5.9,6.9-5.22,1.83.34,5.62,4.36,6.36,6.11.97,2.32.4,5.38-.3,7.75-.44,1.49-1.45,2.8-1.56,4.31.42.43,1.87-1.5,2.12-1.84,1.18-1.59,1.65-3.41,2.64-5.04,2.07-3.42,2.93.49,3.33,2.5,1.06,5.33,1.47,13.24,1.02,18.64-.72,8.73-8.4,16.39-10.24,24.78-.13.62-.76,4.36-.54,4.61.48.1.56-.23.77-.55,1.45-2.22,1.38-4.76,3.81-6.98,3.9-3.55,7.51-.62,6.91,4.03-.28,2.21-1.32,4.49-1.19,6.97.02.36-.17.7.36.6,1.11-1.36,1.25-3.17,2-4.72.49-1.02,1.39-1.87,1.73-3.06.54-1.89.3-8.94,4.19-5.18,2.09,2.02,3.98,6.38,5.02,9.13,2.91,7.68,5.22,15.67,8.03,23.39,7.64,20.98,16.1,41.66,22.93,62.94.11.79.17,5.19.59,5.53.79.64.91-1.29,1.14-1.85.15-.37.62-.61.72-.96.33-1.12-1.58-7.34-2.04-8.89-2.9-9.8-6.32-19.46-9.06-29.32-1.29-4.66-3.7-12.04-3.96-16.66-.05-.92-.27-2.34,1.03-2s4.52,4.25,6.32,4.97c1.23.49,2.39,0,3.57.74l.36-.6-3.24-2.76c-1.18-1.63-2.94-3.18-4-4.87-1.73-2.77-7.46-15.39-7.85-18.3-.13-.94-.15-3.23.25-4.03.76-1.5,2.24-.47,2.99-1.09.68-.56,0-2.87,1.95-2,5.68,2.52,6.3,9.7,8.65,14.85.35.77,1.54,2.62,1.47.71-.05-1.33-.91-3.8-1.16-5.34-.43-2.66-.63-5.4-1.05-8.06-.26-1.64-2.33-7.59,1.1-7.55,2.86.03,6.77,3.92,9.15,5.46,3.1,2,7.47,3.45,11.16,3l.23-.72c-3.75-1.38-7.35-3.27-9.39-6.92-1.04-1.85-2.2-4.71-.79-6.62,1.13-1.53,3.36-1.44,4.18-3.01-.21-1.02-5.37.17-6.22.73-1.03.67-1.9,2.79-3.37,1.19-1.19-1.29-1.35-4.7-1.09-6.37.16-1.03.94-2.87,1.52-3.75.36-.55,4.38-4.89,4.75-5.08,1.31-.67,3.49-.25,4.73.49,1.31.78,4.67,4.44,2.12-.2-.36-.65-1.26-2.03-1.72-2.6-.85-1.04-4.51-3.81-4.75-4.61-.17-.58-.1-1.6.13-2.17.32-.79,4.32-3.67.05-2.83-3.55.7-4.32,3.66-6.34,5.89-.49.54-3.24,3.04-3.73,3.22-1.27.46-2.09-.27-2.33-1.48-.82-4.03.64-11.74,2.87-15.25,1.87-2.96,5.75-5.28,8-8.07.22-.27,1.56-2.17,1.31-2.4-1.33.12-2.5,1.1-3.77,1.62-5.9,2.42-8.48,1.87-12.25,7.9-1.07,1.71-3.46,7.99-4.84,8.59-3.41,1.46-6.64-6.01-7.43-8.39-1.43-4.29-1.56-8.45-1.44-12.96l-.59-2.28c-.77,1.4-.9,3.52-1.08,5.16-.45,3.95-.39,8.04-1.02,11.94l-.57.65c-.29.05-1.02-.7-1.16-.97-.32-.61-1.22-4.16-1.31-4.93-.66-5.84-.17-12.67,1.24-18.38.76-3.07,1.79-7.09,5.67-4.61,1.07.68,2.9,2.64,3.86,3.1.32.15.61.15.95.12.04-.34,0-.63-.13-.95-.57-1.41-3.95-6.13-5.05-7.43-2.53-2.99-5.2-3.23-4.63-8.03.4-3.36,3.64-9.04,7.53-6.14,3.27,2.44,5.73,12.91,7.44,17.03.51,1.22,2.78,6.42,3.48,7.08,1.48,1.4.78-2.74.65-3.53s-.53-1.51-.64-2.24c-.21-1.4-.44-5.15.58-6.1.94-.88,1.37-.17,2.04.61,1.87,2.16,3.33,6.02,4.2,8.75.08.24.2,2.51.83,1.92.5-.46-.11-5.14-.3-6.06-.52-2.53-2.07-5.3-2.47-7.84-.49-3.12.92-8.29,1.51-11.47.4-2.18,2.02-11.91,3.29-13.02.87-.75,1.05.99,1.1,1.56.11,1.31-.24,2.4-.26,3.6-.05,3.53-.01,8.04.24,11.53.09,1.18.89,3.67.74,4.54-.22,1.27-3.73.52-4.08,2.14.13.77,2.39.7,3.16.94,4.35,1.33,6.12,10.68,7.75,14.56,1.85,4.39,4.64,8.35,6.4,12.79.86,2.16,1.33,4.49,2.23,6.64.27.64,3.97,6.74,1.08,5.4-1.25-.58-2.41-3.9-4.08-3.96-.48.46,2.68,5.36,2.99,6.24,1.36,3.81-1.53,11.64-2.45,15.77-.67,3.01-.67,4.87-1.94,7.89-.47,1.11-1.44,1.92-1.24,3.19.38.46,2.62-2.49,2.83-2.81,2.72-4.21,3.14-8.8,7.36-12.31,1.65-1.37,2.18-1.5,4.21-.61.93.41,3.94,2.09,4.77,2.66,2.27,1.57.73,3.98-.19,6.03-3.3,7.4-8.07,15.84-17.43,14.95-1.15-.11-2.43-.72-3.59-.73-1.44,0-.05.88.5,1.18,4.23,2.25,9.64,2.71,14.19,1.3,1.55-.48,5.56-2.9,6.83-2.67,2.16.39,2.47,4.94,4.01,6.2-.11-3.4-.92-6.79-.48-10.2,1.17-9.11,8.42-14.89,15.28-19.98l1.03-.05c0,.42.04.85-.05,1.27-.23.98-1.59,4.28-2.06,5.38-1.42,3.32-3.48,5.92-3.88,9.79ZM296.46,286.18v7.8c0,.18-1,3.07-1.14,3.41-1.66,3.86-7.42,9.63-7.98,1.63-.07-.96.64-6.55-1.45-4.82-1.45,1.2-2.24,5.95-3.3,7.98-3.67,7.04-6.07,3.06-10.52.36-.21-.13-.62-.52-.8-.16,1.31,2.64,4.56,3.53,3.79,7.14-.09.41-.45.76-.55,1.13-.63,2.62-1.06,4.96-3.19,6.87.91,2.8,3.87-.96,5.06-1.64,4.8-2.76,11.54-.66,17.01-2.18.9-.25,4.01-1.33,4.72-1.75,1.41-.83-.63-1.13-1.05-1.79-1.17-1.82-.28-3.27.05-4.96.61-3.15,1.56-7.55,1.51-10.74-.02-1.26-.42-4.04-.7-5.31-.07-.31-.96-3.56-1.48-2.96ZM342.16,392.94c-.73.22-.22,1.11.47,1.19,1.36.16.62-1.52-.47-1.19Z"/>
  <polygon class="st0" points="115.4 704.78 115.16 704.78 115.16 219.5 432.92 219.5 432.92 219.74 115.39 219.73 115.4 704.78"/>
  <path class="st0" d="M342.16,392.94c1.09-.33,1.83,1.35.47,1.19-.69-.08-1.2-.96-.47-1.19Z"/>
  <path d="M364.33,411.4c-.9-.07-.64.93-.84,1.44-.44,1.13-1.89,6.21-2.69,6.44-.35.1-.65.05-.93-.18-.14-.12-.98-3.12-1.03-3.52-.51-3.83.97-9.93,3.94-12.57.6-.53,3.92-2.23,4.55-2.17.57.06,2.51,2.92,3.12,3.61,1.96,2.18,4.96,3.82,5.77,6.7.55,1.98.72,4.43,1.22,6.45.13.54,2.38,8.81,3.2,8.19.05-.36.24-.67.22-1.05-.07-2.21-1.24-5.51-1.42-7.95s.02-8.2,1.47-10.04c1.53-1.93,2.79.39,3.02,1.95.55,3.76.41,7.87,1.06,11.66l2.24,9.98c.84,0,.12-4.75.11-5.38-.13-5.78.63-12.77,2.71-18.18,2.6-6.8,4.02-1.44,4.27,2.57.55,8.66-.83,16.91-1.45,25.44-.29,3.98-.19,8.01-.48,11.99-.2,2.69-.72,5.57-.96,8.28.52.57,1.61-2.51,1.69-2.75,1.04-3.16,1.27-6.84,2.32-9.92,1.3-3.8,2.41-1.38,2.89,1.09.62,3.15,1.4,8.79.96,11.87-.67,4.62-6.81,7.58-10.11,3.28-1.97-2.57-2.75-9.02-3.49-12.35-.13-.57.35-1.74-.49-1.55.01,1.42.23,2.78.25,4.21.08,6.03.11,10.44,2.51,16.18,1.33,3.18,4.52,7.92,4.45,11.4-.02.99-1.28,6.59-1.73,7.41-.55,1.01-1.65,1.29-2.37,1.94-1.27,1.16-4.35,5.37-6.06,4.89-2.28-.64-.7-6.99-.3-8.61,1.66-6.62,3.47-11.47,1.99-18.53-.15-.73-.91-1.16-.91-.53v4.8c0,2.03-1.97,6.63-3.11,8.4-.68,1.05-2.73,3.55-3.71,4.2-1.81,1.21-1.26-3.31-1.36-4.18-.18-1.65-.63-3.85-.99-5.48-.22-.98-1-2.41-1.09-3.25-.07-.65.33-1.22.16-1.8-.13-.46-1.03-.79-1.41-1.24-.72-.86-2.54-3.98-2.89-5.03-.97-2.94.11-7.18.25-10.33.06-1.39-.04-2.8,0-4.19-.65-.11-.42.11-.54.52-1.31,4.15-1.57,9.82-3.67,13.61-1.25,2.26-2.31-.34-2.27-2.03.09-4,1.33-8.69,1.9-12.74.82-5.8.7-12.45,3.77-17.58.65-1.09,5.23-6.63,5.14-7.09-.16-.82-2.3.28-3,.35-.87.09-2.61.1-3.43-.16-.97-.3-2.44-2.07-2.44-3.08v-5.4Z"/>
  <path d="M205.56,441.86c.35-2.67.23-5.25.55-7.97.4-3.48,1.24-6.96,1.81-10.42.49-2.96.67-6.41,1.3-9.26.09-.41.41-1.47.65-1.75,1.49-1.77,2.61,3.05,2.78,3.96.92,4.79-.14,11.07-.38,15.96-.02.48.09,2.63.68,1.4,1.86-3.85,2.53-10.89,3.51-15.2.12-.53.81-2.7,1.08-3,1.65-1.88,2.65,2.71,2.83,3.67,1.63,8.41-1.99,12.46-3.66,19.97-.97,4.37-1.2,9.13-2.44,13.39-.61,2.07-3.16,9.42-4.09,11.02-.29.49-.77.58-.99.93-.7,1.1.02,2.64-.02,3.8-.08,2.53-.86,5.72-.98,8.4-.31,6.95,1.65,15.38.19,22.02-.37,1.68-.98,1.47-1.66.1s-1.27-3.5-1.7-5.01c-3.55-12.26-6.05-27.95-3.75-40.59.32-1.75,1.3-2.82,1.78-4.22,1.01-2.94.32-5.94.17-8.94,1.58-3.49,1.65,2.27,2.35,1.74Z"/>
  <path d="M178.71,421c-.55-.03-.43-.08-.48.35-.2,1.63.05,4.2-.6,5.64-.24.54-2.25,2.85-2.75,3.24-1.01.79-2.32,1.29-3.37.25-1.71-1.69-3.53-10.85-4.54-13.69-.48-1.35-1.88-3.39-2.11-4.36-.3-1.25-.24-2.79-.66-4.14-1.6-5.22-3.37-7.53-4.46-13.53-.59-3.25-2.27-2.62-2.98-4.46-.63-1.62-2.01-7.36-2.04-9.01-.04-1.95,1.61-3.09,3.47-2.74,2.22.42,4.9,6.27,5.34,8.34.55,2.6.27,5.74.95,8.16.51,1.82,1.96,4.09,2.72,5.92,1.74,4.18,3.3,8.7,5.23,12.76.36.75,1.32,3.21,1.71,1.19-1.05-4.73-2.57-9.35-3.1-14.19-.43-3.91-.8-9.11.05-12.9.61-2.7,2.39-6.96,4.71-2.67,2.7,5,3.39,11.4,8.24,15.03.35,4.81,1.56,10.35.61,15.11-.31,1.57-.89,1.6-1.49,2.59-1.1,1.83-1.95,3.91-3.49,5.39-.94.5-1.09-1.77-.97-2.29Z"/>
  <path d="M242.26,439.95c.31-2.19.74-4.37,1.27-6.53.48-1.94,1.75-7.29,2.84-8.67,2.34-2.95,2.44,3.87,2.38,5.01-.5,9.58-6.42,21.9-5.77,30.94.02.27-.14.79.36.59,1.14-.47,1.39-5.91,3.08-5.49.91.23.91,2.9.89,3.71-.08,3.87-.78,7.74-1.13,11.58-.29,1.01-3.8,5.98-4.64,6.87-.53.56-1.2,1.39-1.93.5-.87-1.07-1.07-9.52-1.42-11.41l1.32.48c.4.05.38.02.36-.36-.13-2.11-1.18-4.52-1.42-6.5s.32-4.85-.03-6.69c-.12-.62-.82-.89-1.08-1.56s-.5-2.44-.59-3.25c-.59-5.24-.21-11.03-.73-16.31-.11-1.1-.74-2.28-.73-3.35.03-2.89,1.2-9.49,2.73-11.92.25-.39.52-.76.88-1.06,1.37-.67,2.33,3.31,2.52,4.2.99,4.56.98,11.77.59,16.45-.08.91-1.21,2.58.24,2.76Z"/>
  <path d="M390.23,555.81c2.28-7.14,3.17-14.72,5.35-21.88.23-.76,1.36-4.83,2.53-2.9.59.98.16,4.41-.02,5.65-.63,4.31-2.22,9.04-3.18,13.38s-1.4,10.77-3.52,14.47c-.8,1.39-1.95,2.43-2.79,3.69-3.35,5.06-3.31,10.32-4.67,15.95-1.19,4.92-3.51,9.58-5.02,14.41l-.78.65c-.86-.18-.09-3.7-.1-4.44,0-.9-.2-2.35-.29-3.33-.53-6.23.11-16.03,1.58-22.22.23-.96.44-2.25,1.23-2.87,1.29-.23,2.01,5.89,2.43,6.89.15.34.05.37.54.3.18-2.58.39-5.21.25-7.8-.19-3.45-1.59-8-1.21-11.27.18-1.55,1.38-3.14,1.62-4.86.13-.94-.02-1.86.09-2.79.31-2.75,1.41-2.44,2.02.09.31,1.29.77,4.15.82,5.44.03.8-.81,2.57.5,1.84-.07-.77.6-1.53.7-2.13.35-1.99.14-7.35.02-9.59-.25-5-1.35-9.17-.2-14.33.56-2.51,2.16-.46,2.53,1.21,1.69,7.7-.75,17.24-.91,25.12,0,.47-.08,1.15.49,1.32Z"/>
  <path d="M230.75,524.63c-.6,3.68-.87,7.43-.73,11.16.08,2.17.66,4.52.49,6.7-.04.54-.57,4.06-.75,4.17-.37.23-1.09-.02-1.43-.31-1.28-1.08-1.29-7.45-1.71-9.32-.31-1.38-1.59-3.74-1.63-5.1-.03-1.2.45-3.03.5-4.3.13-3.22-.57-6.64-.25-9.85.05-.48.75-3.47.95-3.61.85-.59,1.91,1.78,2.83,2.24,1.37.68,2.27-.53,3.89.67,1.15.86,2.18,3.98,2.5,5.42.58,2.6.83,5.49,1.48,8.12l.84.48c-.01-.87.58-3.68,1.81-2.4.76.79.89,4.8,1.14,6.07.09.44.11.79.65.65-.26-3.68.76-7.49.48-11.15-.39-4.97-3.98-11.08-3.6-15.83.23-2.88,2.72-3.45,4.97-2.09,1.89,1.15.76,1.52.43,2.68-1.48,5.23.88,11.45.86,16.68,0,3.02-1.18,6.4-.99,9.36.12,1.88,2,6.05,1.58,7.32-.07.23-.19.44-.37.59-1.02.49-1.91-.43-2.94-.32-2.85.32-4,4.16-6.22-.36-1.67-3.39-2.89-8.14-3.48-11.87-.25-1.53-.13-3.93-.56-5.19-.13-.39-.17-.7-.7-.61Z"/>
  <path d="M332.19,439.95l.21,2.72-.57.4c-.58-.12-1.93-4.22-2.02-4.94-.43-3.24,1.78-8.16,2.74-11.37.41-1.36.75-4.66,1.67-5.53.54-.51,1.31-.63,1.93-1.43,1.76-2.27,1.46-7.15,2.64-10.08,1.37-3.41,3.24-3.11,4.27.28,1.39,4.63-1.21,9.68-2.35,14.1s-2.76,13.46-2.04,17.64c.05.28.13.43.36.59.89-.7.45-1.79.66-2.7.36-1.63,2.43-8.79,3.95-9.26s1.9.81,2,1.99c.34,4.02.03,15.35-1.6,18.81-.64,1.38-1.35,2.48-3.04,2.13-1.5-.31-1.39-1.24-2.09-1.99-.38-.41-.98-.48-1.33-.83-2.7-2.63-3.51-6.53-4.69-9.95-.14-.39-.17-.7-.7-.61Z"/>
  <path d="M314.68,526.78c.74-3.29.24-6.66.47-9.96.05-.71.35-3.85,1.67-2.97.44.3.21,4.09.26,4.89.36,5.79,1.31,12.73-.35,18.36-.83,2.8-1.91,1.68-3.11-.03-1.31-1.88-4.12-7-4.81-9.1-.35-1.06-.68-4.34-.96-4.79-.15-.24-.33-.28-.6-.24-.34.24-.31,5.29-.22,6.09.21,1.68,1.22,4.09,1.59,5.85.54,2.58.82,5.22,1.32,7.79.55,2.83,1.66,5.81,1.86,8.7.04.61.25,4.22-.83,3.95-.93-1.93-1.44-4.03-2.48-5.92s-3.5-4.37-3.82-6.5c-.55-3.72.99-8.06,1.03-11.82l-.61-.23c-.02,1.35-.62,2.32-.97,3.47-.5,1.61-2.53,9.32-4,9.69-2.6-.16-1.05-5.6-.67-7.4.31-1.48.94-3.07,1.26-4.5.99-4.53,1.82-12.15,4.62-15.77.43-.55,3.56-3.67,3.97-3.73,1.47-.22,1.27,1.25,2.02,1.93.16-1.19-.48-2.8.61-3.6l.56.4c-.03,3.74.69,7.36,1.21,11.03.17,1.16.08,2.73.27,3.81.07.41.26.67.72.6Z"/>
  <path d="M268.4,536.62c.02-1.16-.11-2.36.23-3.49.1-.34-.14-.42.48-.35,1.33,4.84,3.91,9.24,5.64,13.92.29.8.83,2.09.97,2.86.51,2.74-1.2,6.08-.37,8.89,1.87-2.5,1.44-6.87,4.91-8.18.84-.02,1.22.83,1.4,1.51.53,2.07.25,9.03-.1,11.32-.72,4.71-3.95,5.48-7.3,2.32-2.69-2.54-2.12-5.5-3.41-8.1-.37-.74-1.11-.81-1.54-1.58-1.21-2.16-2.32-6.58-3.19-9.05-2.02-5.74-4.57-12.29-5.13-18.38-.4-4.32.98-6.28,3.37-1.7,1.15,2.19,2.21,5.44,2.96,7.83.23.73-.06,2.11,1.07,2.17Z"/>
  <path d="M304.85,432.99c.16,2.26,1.25,4.34,1.61,6.66.79,5.02.11,9.14-.19,14.08-.09,1.56.47,7.48-.95,8.17-.73.35-3.63-1.11-4.09-1.67-.81-.99-1.27-6.5-1.2-7.94.14-3.01,1.46-5.68,2.65-8.38l-.6-.36c-.26.06-2.39,3.54-2.64,4.08-.32.68-1.11,4.03-1.91,3.84-.39-.09-1.17-2.35-1.26-2.82-.61-2.85-.21-12.94,1.42-15.26,1.5-2.13,2.61.34,2.82,1.91.26,1.98.07,4.1.75,6.09.48.06.39.04.54-.3.39-.91.08-2.18.18-3.18.18-1.75.62-3.52.73-5.27.24-3.87-.99-7.74-.74-11.53.1-1.48.57-3.16.73-4.67.39-.09.49.14.72.35.99.89,3.04,8.81,3.53,10.62.95,3.56,1.74,7.26,2.53,10.91.14.66.91,1.44.04,2.1l-.84-.35c-1.09-1.9-1.63-4.51-2.82-6.29-.25-.37-.45-.87-1-.79Z"/>
  <path d="M334.23,389.33c.46-.1.66.64.73.94,1.35,5.89-.36,12.03-.15,18.14.06,1.73,1.22,8.92-.22,9.83-.28.28-.6,0-.69-.29-.28-.89.01-3.59-.03-4.77-.02-.45-.21-.83-.23-1.22-.05-.77.55-1.72-.38-2.49-.48.29-.29.69-.36,1.08-.79,4.44-.75,8.82-3.83,12.48-5.31,6.3-4.04-4.89-4.34-7.18-.47-3.56-1.82-4.06-.63-8.35,1.53-5.51,4.39-8.59,7.23-13.16.47-.75,2.51-4.93,2.9-5.02Z"/>
  <path d="M275.59,526.78c.86-3.08,1.75-6.76,3.74-9.33.91-1.19,2.91-2.57,3.41-.33.68,3.1-.89,13.22-1.83,16.54-1.54,5.46-4.19,4.92-7.46,1.16-1.85-2.13-3.18-4.84-3.97-7.55-.24-.83,0-1.8-.59-2.53l-.65,1.27-.55,2.21c-.48-.98-.3-2.25-.54-3.18-.16-.65-.72-1.26-.85-2.03-.56-3.28.52-5.06,3.08-6.88,1.7-1.21,5.86-3.37,7.13-.92-.83,3.62-1.45,7.25-1.64,10.97l.72.61Z"/>
  <path d="M266.17,493.01c2.05-.63,5.79,3.35,7.03,4.87,1.36,1.65,1.15,2.33.42,4.27-.39,1.02-1.69,2.47-1.82,2.99-.31,1.24,1.36.63,1.96.27,2.57-1.53,3.25-8.23,5.43-10.88,2.03-2.46,3.41.65,3.6,2.64.22,2.34-.97,5.35-1.88,7.48l-3.64,7.64c-.87.44-1.58-.51-2.31-.82-5.63-2.39-9.32.06-13.08-6.35-1.17-1.99-1.59-3.38-1.33-5.73.6-5.55,2.46-1.1,4,.42.53.53,4.97,3.8,5.29,2.14.15-.8-1.45-1.45-1.93-1.9-1.11-1.06-4.16-6.3-1.74-7.04Z"/>
  <path d="M176.46,437.33l.83.08c.43.3.17,2.44.22,3.13.22,2.54,1.06,6.77.94,9.08s-1.5,6.13-1.88,8.69c-.59,3.89-.4,8.63-1.58,12.34-.35,1.1-1.88,3.33-2.82,1.61-.32-.59-.77-2.91-.87-3.68-.51-3.57-.55-7.61-.75-11.24-.13-2.29-.47-4.27-.23-6.72.5-5.09,4.11-8.82,6.14-13.3Z"/>
  <path d="M331.23,461.78c-1.78.31-.26,3.79-1.84,4.27-2.27.7-3.61-3.26-3.85-4.93-.38-2.59.57-4.96.42-7.62-.19-3.33-2.37-9.09-.93-11.97,1.24-2.47,2.65-.33,3.67,1.06,1.54,2.1,2.41,5.16,3.63,6.93.42.61,1.29.84,1.83,1.76.26.44,1.74,4.01,1.81,4.43.08.51.14,1.01-.06,1.51-.83.96-2.5,5.93-3.41,6.19-1.14.34-1.06-.83-1.28-1.64Z"/>
  <path d="M181.11,425.8c.19-.14.88.29,1.27.2,1-.23,2.23-4.46,2.84-5.57s1.35-2.71,2.75-1.85c.26.21.7,1.5.76,1.88.64,4.11-1.08,17.95-2.87,21.72-2.09,4.38-4.7-3.53-5.15-5.3-.39-1.54-1.09-4.66-1.05-6.16,0-.36,1.26-4.77,1.47-4.92Z"/>
  <path d="M214.37,467.57c1.9-.53,1.54,3.54,1.5,4.64-.16,4.38-.83,8.78-.49,13.2.17,2.19,1.5,4.72,1.47,6.71-.02,1.45-1.79,8.37-3.7,8-.4-.18-.59-.55-.75-.92-.97-2.14-.18-5.72-.14-8.06.06-3.67.08-7.56.03-11.24-.03-2.16-1.41-5.93-.85-8.06.21-.8,2.17-4.06,2.94-4.27Z"/>
  <path d="M264,451.98c2.32-.82,4.49,4.38,4.42,6.07,0,.18-.7,2.57-.8,2.82-.23.56-.77.99-1.07,1.81-1.22,3.28-1.42,7.37-2.7,10.73-.52,1.38-1.96,3.9-2.38.93-.53-3.67.39-10.84,1.24-14.55.18-.77.85-1.53.88-2.48.03-1.08-.83-2.18-.69-3.31.05-.41.76-1.9,1.11-2.02Z"/>
  <path d="M399.7,341.36c.18,0,1.08,1.82,1.2,2.16,1.47,4.24,3.49,11.8,3.5,16.19,0,3.1-6.06,7.16-6.27,1.68-.12-2.99.76-6.43.97-9.36.24-3.2-.02-6.43.23-9.6.03-.43-.07-.78.37-1.06Z"/>
  <path d="M338.13,509.55c.79-.16,1.54.69,1.94,1.32,2.4,3.78.78,10.91.07,15.1-.13.77-.41,5.35-1.11,5.36-.4-.31-.61-.69-.74-1.18-1-3.91-3.11-12.74-2.74-16.45.13-1.27,1.2-3.89,2.57-4.17Z"/>
  <path d="M207.48,521.02c-.41.08-.63-.2-.82-.5-.98-1.53-1.43-5.9-1.93-7.91-1.31-5.3-2.79-10.52-3.5-15.96.46-1.56,1.13-1.7,2.13-.42,1.68,2.15,2.61,5.01,4.35,7.16-.09,3.96-.41,7.99-.38,11.95,0,.88.64,5.32.15,5.68Z"/>
  <path d="M191.58,479.56c1.31-.46,1.53.42,1.94,1.34,1.06,2.41,1.32,5.47,1.48,8.09-.75,1.55-2.15,2.66-3.11,4.08-.67.99-3.03,6.32-3.95,6.12l-.37-.83c.8-5.49,1.17-11.07,2.82-16.39.17-.56.67-2.23,1.19-2.41Z"/>
  <path d="M334.81,482.86c-1.41.96-2.01-3.6-2.1-4.44-.57-4.92.88-6.56,2.48-10.89.57-1.55,1.76-7.63,2.7-2.45.73,3.99,1.46,8.07.99,12.15-.09.81-.98,4.14-2.14,3.4-.8-.51-1.38-5-1.86-6.06-.12-.27-.39-.78-.66-.31s.03,3.66.13,4.44,1.07,3.76.45,4.18Z"/>
  <path d="M304.79,492.53c1.22-.18,1.49.36,1.52,1.51.05,2.07-.76,4.81-1.17,6.77-.18.88.03,1.54-.35,2.53-.1.28-.45,1.23-.79.66-.48-.37,0-2.66-.48-2.64-.56.02-2.73,5.66-3.64,6.2-.78.21-1.3-.05-1.47-.86-.75-3.58-.09-7.03,1.74-10.15.89-1.52,2.79-3.76,4.62-4.02Z"/>
  <path d="M161.68,470.05c-.55,5.55-4.92,7.45-8.49,2.74-.98-1.29-1.57-2.88-.15-4.19,2.14-1.98,2.1,3.62,3.62,2.66,1.22-2.34,2.44-5.93,3.97-8.02.22-.29.37-.59.81-.5-.07.24.24.5.24.6,0,2.1.2,4.7,0,6.72Z"/>
  <path d="M357.85,500.16c.46,1.34.78,2.77,1.33,4.07.44,1.05,2.32,3.89,2.27,4.66-.07,1.28-3.68,3.13-4.89,3.01-2.01-.19-3.41-3.34-3.25-5.13.22-2.49,2.63-4.28,3.69-6.4l.85-.22Z"/>
  <path d="M306.51,391.74c.19,1.32.53,2.66.71,3.97.1.71-.06,1.45.03,2.13.41,3.12,1.73,8.78,1.14,11.7-.56,2.75-2.82,1.48-3.48-.49-1.54-4.63-.68-10.54.23-15.23.1-.52.58-2.57,1.37-2.08Z"/>
  <path d="M314.61,489.39l.68.21c.34.37,1.13,3.8,1.07,4.41-.34,3.44-2.52,7.09-3.24,10.45-.21.99-.28,4.06-.71,4.57-.75.89-1.48-.14-1.57-1.07-.35-3.51,1.11-14.98,3.03-17.86.2-.29.42-.56.74-.71Z"/>
  <path d="M184.11,489.36c.4-.1.71.57.78.89.16.75.21,2.39.29,3.31.23,2.61.27,5.28.44,7.88l-.57.41c-.8.11-1.32-1.28-1.45-1.92-.4-1.97-.4-7.48-.09-9.47.07-.43.24-.81.59-1.09Z"/>
  <path d="M401.18,334.42c1.09-.36,1.66,1.8,1.89,2.61.37,1.33.97,3.88.23,5.04-.99.29-2.75-3.38-2.98-4.21s-.03-3.14.86-3.43Z"/>
  <path d="M198.37,502.08c.62-.1.81.67.9,1.14.3,1.65-.12,7.2-.72,8.76-.38.97-1.21,1.84-1.39.31-.38-3.35.68-6.93,1.21-10.21Z"/>
  <path d="M395.87,481.21c.67-.19,1.51.92,1.32,1.54-.67,1.86-.37,4.14-1.03,5.95s-1.66,1.23-1.62-.4c.02-1.09.53-4.61.8-5.7.09-.36.16-1.28.54-1.39Z"/>
  <path d="M284.95,483.12c-3.09-.18-5.02-3.67-5.27-6.47.55-.1.74.14,1.09.47.82.77,1.75,2.49,2.52,3.48.65.83,1.87,1.33,1.67,2.52Z"/>
  <path d="M325.39,479.32c.96-.26,1.32,2.99,1.3,3.69-.02.83-.38,2.55-1.34,2.54-.91,0-1.08-.8-1.1-1.58-.01-.6.19-3,.31-3.55.08-.35.47-1.01.82-1.1Z"/>
  <path d="M343.63,466.86c.37-.11.94-.13,1.27.07.8,1.14,1.23,3.06-.17,3.92-1.4.2-3.01-1.39-2.34-2.84.09-.21,1.02-1.09,1.24-1.16Z"/>
  <path d="M306.23,506.18c1.49-.22,4.29,5.17-.31,3.1-2.02-.91-1.25-2.87.31-3.1Z"/>
</svg>